<svg xmlns="http://www.w3.org/2000/svg" width="1127.867" height="385.068" viewBox="0 0 1127.867 385.068">
  <path id="Path_8417" data-name="Path 8417" d="M1191.787,2012.985s19.7-9.847-33.059-26.729-179.365-70.339-359.434-63.305c-27.4.869-41.5-20.4-41.5-20.4s-57.677-73.855-83-83-26.729-16.882-28.136,18.288,1.407,87.22-14.068,101.991-21.805,18.992-21.805,18.992-172.331,39.389-202.577,42.906-30.246-4.221-30.246-4.221-14.771-11.958-18.288,4.221-14.771,11.254-14.771,11.254l-62.6,8.44s-38.686,12.661-57.678-23.915S97.31,1882.858,84.649,1877.231s-27.432-15.475-7.034,23.212,45.017,85.11,52.754,105.509,18.992,21.1,4.221,66.821-30.949,99.178-30.949,99.178-12.661,21.1,12.661,4.924,83.7-70.339,104.1-94.254,16.882-30.246,54.865-23.212,50.644,7.737,50.644,7.737-1.407,22.508,9.847,19.7,14.771-6.331,14.771-6.331,0-4.924,18.288-2.11,84.407,11.958,84.407,11.958,12.661,9.144,2.11,15.475,18.288,5.627,24.619,4.22,12.661,18.289,11.254,26.026,11.958,4.221,18.992-1.407,33.059-26.729,33.059-26.729,140.678,24.619,163.187,26.729c-40.094,33.763,4.22,27.432,7.034,26.729s30.245-.7,79.483-28.136c13.365,4.924,5.627,26.729,5.627,26.729v22.985s1.407,26.956,24.619,5.854,49.941-48.534,58.382-73.153c168.109-10.551,192.025-33.762,192.025-33.762s33.763-9.848,40.094-27.433l-4.924-6.331s11.254,2.813,20.4,0S1180.533,2034.086,1191.787,2012.985Z" transform="translate(-67.519 -1811.834)" fill="#002a42"/>
</svg>
