<svg xmlns="http://www.w3.org/2000/svg" width="69.813" height="54.779" viewBox="0 0 69.813 54.779">
  <g id="marcos-pizza" transform="translate(-52.486 -33.715)">
    <path id="Union_13" data-name="Union 13" d="M-164.526-629.047l-.463-.109c-1.22-.271-1.953-1.79-2.712-3.419-.679-1.44-1.44-3.1-2.308-3.1-1.3,0-1.709.653-2.307,1.629a8.544,8.544,0,0,1-1,1.44c-1.49,1.629-4.177,1.764-8.383,1.764v-.026c-4.1,0-6.7-.135-8.168-1.764a7.642,7.642,0,0,1-1-1.439c-.6-.977-.977-1.629-2.308-1.629-.868,0-1.629,1.629-2.307,3.094-.759,1.629-1.491,3.174-2.713,3.419l-.463.109a17.389,17.389,0,0,1-4.505.489c-.759,0-1.68-.029-2.956-.055a32.38,32.38,0,0,1-7.571-.841c-3.827-.733-2.879-8.358-2.172-13.949a85.9,85.9,0,0,1,3.419-16.88c2.063-6.7,3.747-9.335,7.108-11.26,3.065-1.735,7.436-1.735,13.486-1.71h1.954v.19l.164.055,8.007,11.964,8.223-11.886.19-.055v-.19h2.278c5.891-.025,10.177-.051,13.163,1.684,3.39,1.928,5.045,4.56,7.108,11.263a83.984,83.984,0,0,1,3.419,16.88c.706,5.588,1.655,13.214-2.175,13.946a32.452,32.452,0,0,1-7.571.842c-1.247.029-2.2.054-2.956.054A17.07,17.07,0,0,1-164.526-629.047Zm-1.954-4.1c.544,1.141,1.193,2.552,1.79,2.687l.463.11c2.417.514,2.551.543,7.137.434a31.973,31.973,0,0,0,7.356-.814c1.334-.25,1.728-2.418,1.727-5.036,0,2.618-.393,4.786-1.727,5.036a31.973,31.973,0,0,1-7.356.814c-4.586.109-4.721.08-7.137-.434l-.463-.11c-.6-.135-1.246-1.545-1.79-2.687-.9-1.9-1.818-3.853-3.528-3.853-2.063,0-2.8,1.221-3.445,2.279a6.92,6.92,0,0,1-.842,1.221c-1,1.112-3.065,1.33-7.192,1.33,4.126,0,6.189-.219,7.192-1.33a6.92,6.92,0,0,0,.842-1.221c.65-1.057,1.382-2.279,3.445-2.279C-168.3-637-167.377-635.046-166.48-633.147Zm-46.974,2.39a30.614,30.614,0,0,0,7.356.814c4.585.109,4.721.08,7.137-.434l.463-.11a.569.569,0,0,0,.155-.062.569.569,0,0,1-.155.062l-.463.11c-2.416.514-2.551.543-7.137.434a30.614,30.614,0,0,1-7.356-.814c-1.333-.25-1.729-2.418-1.727-5.036C-215.182-633.175-214.787-631.007-213.454-630.757Zm23.719-3.991a8.978,8.978,0,0,0,.842,1.221c1.031,1.14,3.12,1.33,7.407,1.33-4.287,0-6.376-.19-7.407-1.33a8.978,8.978,0,0,1-.842-1.221c-.652-1.057-1.385-2.279-3.445-2.279a2.192,2.192,0,0,0-.354.028,2.192,2.192,0,0,1,.354-.028C-191.12-637.026-190.388-635.8-189.735-634.747Zm41.049-8.995a80.433,80.433,0,0,0-3.327-16.131A80.446,80.446,0,0,1-148.686-643.742Zm-40.641-4.682a19.293,19.293,0,0,0,7.6,1.546,19.046,19.046,0,0,0,7.951-1.71,19.046,19.046,0,0,1-7.951,1.71A19.293,19.293,0,0,1-189.328-648.424Zm-.7-.325,7.677-11.371-7.677,11.371c-4.723-2.307-7.953-6.539-8.033-11.371C-197.985-655.288-194.755-651.056-190.031-648.749Zm16.958-.164c4.534-2.362,7.6-6.484,7.68-11.208-.08,4.723-3.145,8.846-7.68,11.208l-7.816-11.208Zm2.307-22.954a14.028,14.028,0,0,1,6.674,11.559,14.028,14.028,0,0,0-6.674-11.559ZM-199.4-660.307a14.118,14.118,0,0,1,6.783-11.642A14.118,14.118,0,0,0-199.4-660.307Zm1.33-.569h0Zm17.124,0h0Z" transform="translate(269 707)"/>
    <path id="Path_8801" data-name="Path 8801" d="M783.019,1614.459v2.034h1.9c.652,0,0,.569-.218.842-.19.244-1.491,1.819-1.735,2.172-.244.379-.543,2.008.842,2.008h4.965v-2.089h-2.388c-.3,0,.08-.434.325-.759.27-.379,1.491-1.928,1.79-2.333.678-.868.733-1.9-.218-1.9-1.083.023-5.261.023-5.261.023Zm-3.094,6.976H782.1l.055-7.137h-2.172Zm20.27-2.227c-1.276,0-1.819-.543-1.819-1.2a1.2,1.2,0,0,1,2.39,0v3.393h2.5v-3.391a3.744,3.744,0,0,0-7.488,0c0,2.063,1.684,3.8,4.451,3.474Zm-25.126-2.169c1.276,0,1.819-.543,1.819-1.2a1.2,1.2,0,0,0-2.39,0v5.617H772v-5.617a3.744,3.744,0,1,1,7.488,0c0,2.06-1.684,3.8-4.451,3.474Z" transform="translate(-698.841 -1533.035)"/>
    <circle id="Ellipse_132" data-name="Ellipse 132" cx="1.411" cy="1.411" r="1.411" transform="translate(80.922 77.6)"/>
    <path id="Path_8802" data-name="Path 8802" d="M1380.819,1606.177v2.034h1.9c.652,0,0,.569-.218.842-.189.244-1.491,1.819-1.735,2.172-.244.379-.543,2.008.842,2.008h4.965v-2.089h-2.388c-.3,0,.08-.434.325-.758.27-.379,1.491-1.928,1.79-2.333.678-.868.733-1.9-.218-1.9-1.055.023-5.261.023-5.261.023Zm28.439-1.276a1.291,1.291,0,0,1,1.33-1.3,1.309,1.309,0,0,1,1.33,1.3,1.331,1.331,0,0,1-2.661,0Zm.219,0a1.1,1.1,0,0,0,1.112,1.112,1.116,1.116,0,0,0,1.112-1.112,1.1,1.1,0,0,0-1.112-1.112A1.134,1.134,0,0,0,1409.476,1604.9Zm1.71.761h-.244l-.379-.678h-.27v.678h-.218v-1.491h.624c.27,0,.514.08.514.379a.371.371,0,0,1-.408.408Zm-.9-1.276v.379h.218c.19,0,.463.026.463-.164s-.164-.189-.325-.189Z" transform="translate(-1289.912 -1524.779)"/>
    <g id="Group_2967" data-name="Group 2967" transform="translate(60.353 54.862)">
      <path id="Path_8803" data-name="Path 8803" d="M478.516,892.855l-1.735,3.908,2.661.922,1.845-4.043a3.069,3.069,0,0,0-2.063-4.152,3.86,3.86,0,0,0-4.749,1.79L472.6,895.3s2.767.922,2.741.951,1.819-4.017,1.819-4.017a.787.787,0,0,1,.977-.408.674.674,0,0,1,.463.868Z" transform="translate(-468.397 -885.831)" fill="#fff"/>
      <path id="Path_8804" data-name="Path 8804" d="M332.187,841.855l-1.735,3.908,2.661.922,1.845-4.043a3.069,3.069,0,0,0-2.063-4.152,3.86,3.86,0,0,0-4.749,1.79l-1.845,4.043s2.767.922,2.741.951,1.819-4.017,1.819-4.017a.788.788,0,0,1,.977-.408.674.674,0,0,1,.463.868ZM345,847.472c-1.356-.19-1.819-.759-1.71-1.356a1.271,1.271,0,0,1,1.439-.922,1.128,1.128,0,0,1,1.057,1.247l-.569,3.12,2.632.353.569-3.12a3.574,3.574,0,0,0-3.339-3.988,3.977,3.977,0,0,0-4.586,2.9c-.353,1.9,1.141,3.718,4.126,3.827Zm20.785-2.388a3.992,3.992,0,1,0,4.043-3.474,3.773,3.773,0,0,0-4.043,3.474l2.686.026a1.243,1.243,0,0,1,1.3-1.166,1.205,1.205,0,0,1,1.247,1.141,1.237,1.237,0,0,1-1.3,1.086,1.188,1.188,0,0,1-1.221-1.031Zm-14.625,2.606A3.527,3.527,0,0,1,354.684,844l1.411-.08.19-.026.19,2.224-.543.081-1.086.164c-.678.27-1,.218-1.086,1.086l-.08,2.957-2.661-.055.08-2.957" transform="translate(-326.3 -836.296)" fill="#fff"/>
      <path id="Path_8805" data-name="Path 8805" d="M1188.5,781.7l.109-4.422,2.661.055-.109,4.422Zm22.118-11.938a15.378,15.378,0,0,0-1.6.488c-.3.135-.27.081-.244.6.026.488.026,2.523,0,2.687s.353.055.678.026,1.031,0,1.141-.488.27-2.85.325-3.04C1211,769.811,1210.888,769.676,1210.618,769.759Zm-9.226,11.07-.9.164-.842.109a1.286,1.286,0,0,1-1.491-.868,1.125,1.125,0,0,1,1-1.3l1.385-.244.27-.055-.6-2.279-.19.026-1.411.244a3.521,3.521,0,0,0-3.12,4.043,4,4,0,0,0,4.666,2.712l.623-.08,1.112-.218Zm10.826-4.775c-.3-.3-.219-.325-.353-.813a1.667,1.667,0,0,1,.135-1.031,2.45,2.45,0,0,1,1.3-.977l3.689-1.276.977,2.2-1.954.652a11.194,11.194,0,0,1,2.712.977,1.614,1.614,0,0,1,.707,1.2,1.475,1.475,0,0,1-.787,1.546,2.926,2.926,0,0,1-.733.325l-3.772,1.276-.951-2.118s.325-.109.951-.325.514-.19,1.031-.353c-.054-.055-.08-.055-.08-.055-.868-.218-.759-.244-1.71-.543a2.792,2.792,0,0,1-1.163-.678Z" transform="translate(-1163.727 -769.734)" fill="#fff"/>
    </g>
    <path id="Path_8806" data-name="Path 8806" d="M697.377,48.957c5.048,2.5,8.522,7.3,8.439,12.51-.109,7.789-7.815,14-17.2,13.921-9.39-.109-16.906-6.485-16.771-14.248.08-5.209,3.583-9.849,8.657-12.24l8.358,12.4Z" transform="translate(-601.557 -14.749)" fill="#676767"/>
    <g id="Group_2968" data-name="Group 2968" transform="translate(73.558 37.81)">
      <path id="Path_8807" data-name="Path 8807" d="M791.977,186.06a1.54,1.54,0,0,0,.759,2.307,2.3,2.3,0,0,0,2.8-.623,1.54,1.54,0,0,0-.758-2.307A2.285,2.285,0,0,0,791.977,186.06Zm-3.04-4.232a1.54,1.54,0,0,0,.759,2.307,2.3,2.3,0,0,0,2.8-.623,1.54,1.54,0,0,0-.759-2.307A2.3,2.3,0,0,0,788.937,181.828Zm-2.77,4.017a2.3,2.3,0,0,1,2.8-.623,1.555,1.555,0,0,1,.758,2.307,2.3,2.3,0,0,1-2.8.623A1.526,1.526,0,0,1,786.168,185.845Zm6.054,7.192a2.3,2.3,0,0,0,2.8.623,1.555,1.555,0,0,0,.759-2.307,2.3,2.3,0,0,0-2.8-.623A1.554,1.554,0,0,0,792.221,193.037Zm-5.781.19a2.3,2.3,0,0,0,2.8.623,1.555,1.555,0,0,0,.758-2.307,2.3,2.3,0,0,0-2.8-.623A1.529,1.529,0,0,0,786.44,193.226Zm2.658,3.853a1.54,1.54,0,0,1,.759-2.307,2.3,2.3,0,0,1,2.8.623,1.54,1.54,0,0,1-.759,2.307A2.3,2.3,0,0,1,789.1,197.079Z" transform="translate(-785.889 -180.844)" fill="#333"/>
      <ellipse id="Ellipse_133" data-name="Ellipse 133" cx="2.034" cy="1.684" rx="2.034" ry="1.684" transform="translate(11.786 12.514)" fill="#333"/>
      <ellipse id="Ellipse_134" data-name="Ellipse 134" cx="2.034" cy="1.684" rx="2.034" ry="1.684" transform="translate(9.1 16.775)" fill="#333"/>
      <ellipse id="Ellipse_135" data-name="Ellipse 135" cx="2.034" cy="1.684" rx="2.034" ry="1.684" transform="translate(14.447 16.775)" fill="#333"/>
      <path id="Path_8808" data-name="Path 8808" d="M1417.112,188.258a1.54,1.54,0,0,0-.759-2.307,2.3,2.3,0,0,0-2.8.623,1.54,1.54,0,0,0,.759,2.307A2.277,2.277,0,0,0,1417.112,188.258Zm3.12,4.071a1.54,1.54,0,0,0-.759-2.307,2.3,2.3,0,0,0-2.8.623,1.54,1.54,0,0,0,.758,2.307A2.281,2.281,0,0,0,1420.233,192.329Zm2.686-3.853a2.3,2.3,0,0,1-2.8.623,1.555,1.555,0,0,1-.759-2.307,2.3,2.3,0,0,1,2.8-.623A1.526,1.526,0,0,1,1422.919,188.476Zm-5.807-7.163a2.3,2.3,0,0,0-2.8-.623,1.555,1.555,0,0,0-.759,2.307,2.3,2.3,0,0,0,2.8.623A1.526,1.526,0,0,0,1417.112,181.313Zm5.807-.19a2.3,2.3,0,0,0-2.8-.623,1.555,1.555,0,0,0-.759,2.307,2.3,2.3,0,0,0,2.8.623A1.545,1.545,0,0,0,1422.919,181.124Zm-3.04-4.017a1.54,1.54,0,0,1-.759,2.307,2.3,2.3,0,0,1-2.8-.623,1.538,1.538,0,0,1,.758-2.307A2.287,2.287,0,0,1,1419.879,177.107Z" transform="translate(-1395.258 -176.258)" fill="#333"/>
    </g>
    <path id="Path_8810" data-name="Path 8810" d="M981.349,34.549l.759.3L982,33.98h-.3Zm-15.874-.27-.649.055L964.8,33.9h.463Z" transform="translate(-886.101 -0.18)"/>
  </g>
</svg>
