<svg xmlns="http://www.w3.org/2000/svg" width="94.623" height="59.98" viewBox="0 0 94.623 59.98">
  <g id="midas-4-logo-svg-vector" transform="translate(-7.903 -40.489)">
    <path id="Path_8812" data-name="Path 8812" d="M57.5,99.715a78.591,78.591,0,0,0,15.365-2.024c17.047-4.381,29.064-14.912,29.064-27.213,0-16.23-20.913-29.388-46.71-29.388S8.5,54.248,8.5,70.478c0,7.756,4.776,14.809,12.812,20.216a55.151,55.151,0,0,0,19.733,7.792,79.739,79.739,0,0,0,14.188,1.228Z" fill="#fff" fill-rule="evenodd"/>
    <path id="Path_8815" data-name="Path 8815" d="M46.174,78.71H41.266l-7.092,8.082L31.692,78.71H26.73L22.105,95.493a23.234,23.234,0,0,0,3.445,5.182L29.4,86.944l2.642,7.565,6.742-7.717-2.7,9.755h5.042l4.782-16.919,3.067,2.145L44.964,96.547h5.585L55.695,78.71H46.174Zm43.3,1.371A5.419,5.419,0,0,0,88.1,82.559l-.807,2.857a6.317,6.317,0,0,0-.23,1.464c0,2.343,2.272,2.343,3.856,2.366h3.94l-1.036,3.586H84.546l1.123-14.115h-8.81L70.037,92.832l-1.9,3.716h5.676l1.9-4.387h3.427l-.519,4.387H93.3a6.563,6.563,0,0,0,4.459-1.163,5.261,5.261,0,0,0,1.468-2.275L100,90.485a9.176,9.176,0,0,0,.459-2.371c0-2.267-2.185-2.318-4.086-2.343h-3.71l.949-3.338,6.9,0,.993-3.715H93.876a6.022,6.022,0,0,0-4.4,1.365Zm-9.912,9.062H77.032l3.427-7.518Zm-8.419-6.411s1.486-4.022-3-4.022l-9.384-.028L53.811,96.547h8.7s4.375.436,5.724-3.729ZM62.893,92.818H60.14l2.971-10.435,2.615.063L62.893,92.818Zm40.826-14.071a1.3,1.3,0,1,0,1.311,1.3A1.3,1.3,0,0,0,103.719,78.747Zm0,2.392a1.089,1.089,0,1,1,1.05-1.089A1.049,1.049,0,0,1,103.719,81.139Z" transform="translate(-6.371 -17.61)" fill-rule="evenodd"/>
    <path id="Path_8816" data-name="Path 8816" d="M175.8,80.273c0-.3-.175-.427-.531-.427h-.57v1.5h.224V80.7h.264l.4.652h.254l-.425-.663a.39.39,0,0,0,.388-.414Zm-.877.231V80.04h.313c.158,0,.327.036.327.22,0,.232-.173.245-.366.245Z" transform="translate(-77.852 -18.155)" fill-rule="evenodd"/>
    <path id="Path_8817" data-name="Path 8817" d="M55.214,99.868c25.8,0,46.71-13.159,46.71-29.389S81.012,41.09,55.214,41.09,8.5,54.248,8.5,70.478,29.417,99.868,55.214,99.868Z" fill="none" stroke="#000" stroke-miterlimit="2.613" stroke-width="1.202"/>
    <path id="Path_8818" data-name="Path 8818" d="M99.221,41.134c-.124,0-.249,0-.373,0,.111,0,.225,0,.336.006A.215.215,0,0,1,99.221,41.134Z" transform="translate(-42.321 -0.019)" fill="#b93948" fill-rule="evenodd"/>
    <path id="Path_8819" data-name="Path 8819" d="M63.332,99.324A87.5,87.5,0,0,0,72.861,97.7a52.252,52.252,0,0,0,17.8-8.08c-7.853,5-18.868,8.068-31.763,8.068-24.519,0-42.026-11-44.27-25.056-.985-6.17.747-12.116,5.525-17.633,7.785-8.746,21.4-13.488,36.706-13.872-.111,0-.9-.015-1.183-.015a80.993,80.993,0,0,0-10.465.67C24.224,44.665,8.5,56.42,8.5,70.489c0,12.859,13.133,23.78,31.414,27.767A78.87,78.87,0,0,0,55.3,99.722l8.028-.4Z" transform="translate(0 -0.011)" fill-rule="evenodd"/>
    <circle id="Ellipse_136" data-name="Ellipse 136" cx="3" cy="3" r="3" transform="translate(43.836 52.101)"/>
  </g>
</svg>
