<svg xmlns="http://www.w3.org/2000/svg" width="112.473" height="65.953" viewBox="0 0 112.473 65.953">
  <g id="Mountain_Mike_s_Pizza_logo" data-name="Mountain_Mike&apos;s_Pizza_logo" transform="translate(-16 -3.2)">
    <g id="Group_3025" data-name="Group 3025" transform="translate(16 3.2)">
      <g id="Group_2983" data-name="Group 2983" transform="translate(32.432 5.124)">
        <g id="Group_2982" data-name="Group 2982">
          <g id="Group_2972" data-name="Group 2972" transform="translate(0 1.663)">
            <g id="Group_2970" data-name="Group 2970" transform="translate(0.475 0.466)">
              <path id="Path_8825" data-name="Path 8825" d="M115.06,31.023c-.333.166-.133.6.233.532a115.055,115.055,0,0,1,22.894-2.229,117.366,117.366,0,0,1,22.894,2.229c.366.067.6-.366.233-.532a47.412,47.412,0,0,0-46.254,0Z" transform="translate(-114.891 -24.999)" fill="#fff"/>
            </g>
            <g id="Group_2971" data-name="Group 2971">
              <path id="Path_8826" data-name="Path 8826" d="M113.509,30.554a.7.7,0,0,1,.4-.9h0c7.354-3.594,15.207-6.089,23.36-6.056,8.153-.033,16.006,2.462,23.36,6.056a.7.7,0,0,1,.4.9.8.8,0,0,1-.932.5,117.976,117.976,0,0,0-45.655,0,.878.878,0,0,1-.765-.2A1.349,1.349,0,0,1,113.509,30.554Zm23.759-6.023c-7.554-.033-14.841,2.229-21.663,5.357a123.086,123.086,0,0,1,21.663-2,129.545,129.545,0,0,1,21.663,2C152.109,26.761,144.821,24.5,137.268,24.531Z" transform="translate(-113.463 -23.599)"/>
            </g>
          </g>
          <g id="Group_2974" data-name="Group 2974" transform="translate(0.494 2.529)">
            <g id="Group_2973" data-name="Group 2973">
              <path id="Path_8827" data-name="Path 8827" d="M138.257,30.093a117.367,117.367,0,0,0-22.894,2.229c-.366.067-.6.033-.233-.133,3.427-1.7,10.848-6.023,22.361-5.99Z" transform="translate(-114.946 -26.199)"/>
            </g>
          </g>
          <g id="Group_2977" data-name="Group 2977" transform="translate(20.743)">
            <g id="Group_2975" data-name="Group 2975" transform="translate(0.466 0.466)">
              <path id="Path_8828" data-name="Path 8828" d="M182.358,22.163,182.391,20H177.2l.765,59.9h3.66l.666-54.406" transform="translate(-177.2 -20)" fill="#fff"/>
            </g>
            <g id="Group_2976" data-name="Group 2976">
              <path id="Path_8829" data-name="Path 8829" d="M176.565,79.428h4.592l.666-54.839-.932-.033-.666,53.94H177.5l-.732-58.965h4.226l-.033,1.7.932.067.033-2.7H175.8Z" transform="translate(-175.8 -18.6)"/>
            </g>
          </g>
          <g id="Group_2979" data-name="Group 2979" transform="translate(21.209 0.466)">
            <g id="Group_2978" data-name="Group 2978">
              <path id="Path_8830" data-name="Path 8830" d="M182.391,20,179.4,23.294,177.2,20Z" transform="translate(-177.2 -20)"/>
            </g>
          </g>
          <g id="Group_2981" data-name="Group 2981" transform="translate(21.209 0.466)">
            <g id="Group_2980" data-name="Group 2980">
              <path id="Path_8831" data-name="Path 8831" d="M179.4,23.294V79.9h-1.431L177.2,20Z" transform="translate(-177.2 -20)"/>
            </g>
          </g>
        </g>
        <path id="Path_8832" data-name="Path 8832" d="M146.9,31.863a48.291,48.291,0,0,1,17.57-.433l.4-1.8A53.219,53.219,0,0,0,146.9,31.863Z" transform="translate(-135.774 -25.907)" fill="#fff"/>
        <path id="Path_8833" data-name="Path 8833" d="M191.3,25.5v1.364a23.435,23.435,0,0,1,8.086,1.1C196.624,26.631,195.06,25.766,191.3,25.5Z" transform="translate(-165.399 -23.204)"/>
      </g>
      <g id="Group_2986" data-name="Group 2986" transform="translate(28.684 12.911)">
        <g id="Group_2985" data-name="Group 2985">
          <g id="Group_2984" data-name="Group 2984">
            <path id="Path_8834" data-name="Path 8834" d="M146.124,48.955l-1.63,1.7-6.855-5.424-2.229,1.065L131.716,42l-2.529,4.259-1.531-.566L124.2,49.088l-1.3-1.6-3.827,3.361s-2.995-3.76-3.527-3.66S102.2,57.64,102.2,57.64c.1-.133,55.1,0,55.1,0Z" transform="translate(-102.2 -42)" fill="#676767"/>
          </g>
        </g>
        <path id="Path_8835" data-name="Path 8835" d="M130.849,64.761l-2.9-3.361L120.7,67.257l5.69-1.664.832,2.363,2.163-3.66Z" transform="translate(-114.544 -54.944)" fill="#fff"/>
        <path id="Path_8836" data-name="Path 8836" d="M229.2,70.163l1.963-2.263,5.357,4.326-4.326-1.5-1.032.765-1-1.664Z" transform="translate(-186.94 -59.282)" fill="#fff"/>
        <path id="Path_8837" data-name="Path 8837" d="M172.7,51.028l-2.5,1.165L166.912,47.8l-2.429,4.293-1.7-.666-3.727,3.694-1.364-1.564L154.7,56.385l1.83-.366,3.76,3.594,3.394-2.962,1.065.466,2.4-1.564,1.963,1.231,1.032-1.2,3.194,2.729,1-1.963,3.793-1.1Z" transform="translate(-137.23 -45.87)" fill="#fff"/>
      </g>
      <g id="Group_2987" data-name="Group 2987" transform="translate(1.73 28.95)">
        <path id="Path_8838" data-name="Path 8838" d="M22.232,90.2H21.2v28.118H130.212V90.2H22.232ZM129.18,117.287H22.232V91.232H129.18v26.055Z" transform="translate(-21.2 -90.2)" fill="#fff"/>
      </g>
      <g id="Group_2988" data-name="Group 2988" transform="translate(0 27.22)">
        <path id="Path_8839" data-name="Path 8839" d="M16,85v31.579H128.473V85Zm110.742,2.762v27.087H17.73V86.73H126.742Z" transform="translate(-16 -85)"/>
      </g>
      <g id="Group_2989" data-name="Group 2989" transform="translate(2.762 29.982)">
        <rect id="Rectangle_1733" data-name="Rectangle 1733" width="106.949" height="26.055"/>
      </g>
      <g id="Group_2993" data-name="Group 2993" transform="translate(6.655 35.472)">
        <g id="Group_2991" data-name="Group 2991" transform="translate(99.196 9.683)">
          <g id="Group_2990" data-name="Group 2990">
            <path id="Path_8840" data-name="Path 8840" d="M334.1,139.566a.6.6,0,0,1,.2-.466.657.657,0,0,1,.466-.2.6.6,0,0,1,.466.2.659.659,0,1,1-.932.932A.674.674,0,0,1,334.1,139.566Zm.133,0a.568.568,0,1,0,.166-.4A.485.485,0,0,0,334.233,139.566Zm.532-.366c.133,0,.2.067.2.233a.244.244,0,0,1-.067.2l.1.333h-.133l-.067-.3h-.067v.3H334.6V139.2Zm-.033.1v.233h.033c.033,0,.067,0,.067-.033v-.133c0-.033-.033-.033-.067-.033h-.033Z" transform="translate(-334.1 -138.9)" fill="#fff"/>
          </g>
        </g>
        <g id="Group_2992" data-name="Group 2992">
          <path id="Path_8841" data-name="Path 8841" d="M38.629,112.329v5.457a2.077,2.077,0,0,0,.1.8.556.556,0,0,0,.433.233v1.83H36.033v-1.83a.422.422,0,0,0,.433-.233,1.436,1.436,0,0,0,.133-.732v-5.224a1.579,1.579,0,0,0-.133-.765.589.589,0,0,0-.466-.3V109.8h3.86l1.4,6.156,1.331-6.156h3.893v1.764a.789.789,0,0,0-.466.266,1.552,1.552,0,0,0-.133.832v4.892a1.927,1.927,0,0,0,.133.932.652.652,0,0,0,.466.266v1.83H42.988v-1.83a.586.586,0,0,0,.433-.3,2.608,2.608,0,0,0,.133-.932v-5.091l-1.9,8.153H40.625Z" transform="translate(-36 -109.8)" fill="#fff"/>
          <path id="Path_8842" data-name="Path 8842" d="M69.9,117.928a8.366,8.366,0,0,1,.1-1.564,2.193,2.193,0,0,1,.366-.8,2.28,2.28,0,0,1,.965-.666,6.225,6.225,0,0,1,3.128,0,2.021,2.021,0,0,1,.965.666,2.193,2.193,0,0,1,.366.8,8.192,8.192,0,0,1,.1,1.531v2.962a8.192,8.192,0,0,1-.1,1.531,2.193,2.193,0,0,1-.366.8,2.021,2.021,0,0,1-.965.666,6.225,6.225,0,0,1-3.128,0,2.021,2.021,0,0,1-.965-.666,2.193,2.193,0,0,1-.366-.8,8.366,8.366,0,0,1-.1-1.564Zm2.1-.067v3.095a1.755,1.755,0,0,0,.233,1.032,1.045,1.045,0,0,0,1.464,0,1.877,1.877,0,0,0,.233-1.032v-3.095a1.755,1.755,0,0,0-.233-1.032,1.044,1.044,0,0,0-1.464,0A1.877,1.877,0,0,0,72,117.861Z" transform="translate(-58.619 -113.069)" fill="#fff"/>
          <path id="Path_8843" data-name="Path 8843" d="M90.3,116.664V115.2h3.028v1.464a.67.67,0,0,0-.366.3,2.076,2.076,0,0,0-.1.8v3.494a1.689,1.689,0,0,0,.233,1.032.884.884,0,0,0,.732.3.818.818,0,0,0,.732-.333,1.53,1.53,0,0,0,.233-.965V117.5a1.138,1.138,0,0,0-.1-.566.625.625,0,0,0-.366-.266V115.2h2.729v1.464a.589.589,0,0,0-.366.233,1.713,1.713,0,0,0-.1.7v3.727a4.668,4.668,0,0,1-.133,1.331,2.839,2.839,0,0,1-.433.832,2.387,2.387,0,0,1-.932.666,3.333,3.333,0,0,1-1.3.233,2.89,2.89,0,0,1-2.263-.732,3.512,3.512,0,0,1-.7-2.462v-3.627a1.271,1.271,0,0,0-.1-.632A1.887,1.887,0,0,0,90.3,116.664Z" transform="translate(-72.231 -113.403)" fill="#fff"/>
          <path id="Path_8844" data-name="Path 8844" d="M113.3,124.218v-1.531a.56.56,0,0,0,.366-.2,1.608,1.608,0,0,0,.1-.7v-4.326a1.138,1.138,0,0,0-.1-.566.774.774,0,0,0-.366-.233V115.2h2.363l2.263,5.058v-2.7a1.532,1.532,0,0,0-.1-.666.48.48,0,0,0-.366-.233V115.2h2.862v1.464a.536.536,0,0,0-.366.266,1.877,1.877,0,0,0-.1.765v6.555h-1.9l-2.263-5.125v2.7a1.713,1.713,0,0,0,.1.7.48.48,0,0,0,.366.233v1.531H113.3Z" transform="translate(-87.578 -113.403)" fill="#fff"/>
          <path id="Path_8845" data-name="Path 8845" d="M138.7,116.93a.755.755,0,0,0-.632.266,1.236,1.236,0,0,0-.2.765v.9H136.2V115.2h7.088v3.66h-1.664v-.9a1.279,1.279,0,0,0-.2-.8.741.741,0,0,0-.632-.233v4.858a1.794,1.794,0,0,0,.1.732.487.487,0,0,0,.366.2v1.531h-2.995V122.72a.48.48,0,0,0,.366-.233,1.51,1.51,0,0,0,.1-.7V116.93Z" transform="translate(-102.858 -113.403)" fill="#fff"/>
          <path id="Path_8846" data-name="Path 8846" d="M156.7,124.218v-1.531a.61.61,0,0,0,.333-.233,3.1,3.1,0,0,0,.2-.7L158.5,115.2h3.095l1.4,6.688a2.094,2.094,0,0,0,.2.566.51.51,0,0,0,.333.233v1.531H160.46v-1.531a.591.591,0,0,0,.333-.133.422.422,0,0,0,.133-.3v-.1a.2.2,0,0,0-.033-.133l-.067-.366H159.1l-.067.333a.3.3,0,0,1-.033.166v.1a.442.442,0,0,0,.1.333.767.767,0,0,0,.366.133v1.531H156.7Zm2.6-3.86h1.231l-.632-3.461Z" transform="translate(-116.536 -113.403)" fill="#fff"/>
          <path id="Path_8847" data-name="Path 8847" d="M181.429,121.855a1.793,1.793,0,0,0,.1.732.487.487,0,0,0,.366.2v1.531H178.9v-1.531a.48.48,0,0,0,.366-.233,1.51,1.51,0,0,0,.1-.7V117.7a1.51,1.51,0,0,0-.1-.7.774.774,0,0,0-.366-.233V115.3h2.995v1.464a.48.48,0,0,0-.366.233,1.688,1.688,0,0,0-.1.732Z" transform="translate(-131.349 -113.47)" fill="#fff"/>
          <path id="Path_8848" data-name="Path 8848" d="M190.2,124.218v-1.531a.56.56,0,0,0,.366-.2,1.609,1.609,0,0,0,.1-.7v-4.326a1.138,1.138,0,0,0-.1-.566.774.774,0,0,0-.366-.233V115.2h2.363l2.263,5.058v-2.7a1.532,1.532,0,0,0-.1-.666.48.48,0,0,0-.366-.233V115.2h2.862v1.464a.536.536,0,0,0-.366.266,1.876,1.876,0,0,0-.1.765v6.555h-1.9l-2.263-5.125v2.7a1.713,1.713,0,0,0,.1.7.48.48,0,0,0,.366.233v1.531H190.2Z" transform="translate(-138.889 -113.403)" fill="#fff"/>
          <path id="Path_8849" data-name="Path 8849" d="M222.029,112.329v5.457a2.077,2.077,0,0,0,.1.8.556.556,0,0,0,.433.233v1.83h-3.128v-1.83a.422.422,0,0,0,.433-.233,1.436,1.436,0,0,0,.133-.732v-5.224a1.578,1.578,0,0,0-.133-.765.589.589,0,0,0-.466-.3V109.8h3.86l1.4,6.156,1.331-6.156h3.893v1.764a.789.789,0,0,0-.466.266,1.982,1.982,0,0,0-.133.832v4.892a1.927,1.927,0,0,0,.133.932c.067.166.233.233.466.266v1.83h-3.561v-1.83a.586.586,0,0,0,.433-.3,2.608,2.608,0,0,0,.133-.932v-5.091l-1.9,8.153h-1.032Z" transform="translate(-158.372 -109.8)" fill="#fff"/>
          <path id="Path_8850" data-name="Path 8850" d="M256.829,121.855a1.794,1.794,0,0,0,.1.732.487.487,0,0,0,.366.2v1.531H254.3v-1.531a.48.48,0,0,0,.366-.233,1.51,1.51,0,0,0,.1-.7V117.7a1.51,1.51,0,0,0-.1-.7.774.774,0,0,0-.366-.233V115.3h2.995v1.464a.48.48,0,0,0-.366.233,1.588,1.588,0,0,0-.1.732Z" transform="translate(-181.659 -113.47)" fill="#fff"/>
          <path id="Path_8851" data-name="Path 8851" d="M268.562,115.2v1.464a.56.56,0,0,0-.366.2,1.588,1.588,0,0,0-.1.732v1.531l1.131-1.7a1.261,1.261,0,0,0,.2-.433,2.986,2.986,0,0,0,.067-.6v-1.2h2.529v1.464a1.23,1.23,0,0,0-.366.166,1.5,1.5,0,0,0-.3.333l-1.331,2.03,1.7,3.061a1.775,1.775,0,0,0,.233.333.627.627,0,0,0,.3.133v1.531h-2.762v-1.165a2.986,2.986,0,0,0-.067-.6,1.925,1.925,0,0,0-.166-.466l-1.165-2.13v1.93a1.793,1.793,0,0,0,.1.732.487.487,0,0,0,.366.2v1.531H265.6v-1.531a.48.48,0,0,0,.366-.233,1.509,1.509,0,0,0,.1-.7v-4.159a1.509,1.509,0,0,0-.1-.7.774.774,0,0,0-.366-.233v-1.464h2.962Z" transform="translate(-189.198 -113.403)" fill="#fff"/>
          <path id="Path_8852" data-name="Path 8852" d="M287.2,124.218v-1.531a.48.48,0,0,0,.366-.233,1.51,1.51,0,0,0,.1-.7V117.6a1.51,1.51,0,0,0-.1-.7.774.774,0,0,0-.366-.233V115.2h6.356v2.762h-1.963v-.1a.924.924,0,0,0-.233-.732,1.325,1.325,0,0,0-.832-.2h-.765v1.9h2.462v1.531h-2.462v2.163h.9a1.014,1.014,0,0,0,.732-.2,1.112,1.112,0,0,0,.2-.765v-.333h1.963v3.028H287.2Z" transform="translate(-203.611 -113.403)" fill="#fff"/>
          <path id="Path_8853" data-name="Path 8853" d="M309.033,117.163a1.568,1.568,0,0,0,.333-.333,1.124,1.124,0,0,0,.2-.4.828.828,0,0,1-.632-.233.73.73,0,0,1-.233-.566.8.8,0,0,1,.233-.6.828.828,0,0,1,.632-.233.852.852,0,0,1,.632.266.989.989,0,0,1,.233.7,1.712,1.712,0,0,1-.3.932,2.827,2.827,0,0,1-.832.832Z" transform="translate(-217.957 -113.136)" fill="#fff"/>
          <path id="Path_8854" data-name="Path 8854" d="M315.5,122.986v-2.263h2.03v.166a1.518,1.518,0,0,0,.266.965.982.982,0,0,0,.8.3.91.91,0,0,0,.932-.932,1.074,1.074,0,0,0-.266-.7,2.3,2.3,0,0,0-.965-.532c-.1-.033-.266-.1-.433-.166a6.215,6.215,0,0,1-1.5-.732,2.142,2.142,0,0,1-.666-.8,2.534,2.534,0,0,1-.2-1.065,2.381,2.381,0,0,1,.832-1.93,3.314,3.314,0,0,1,2.229-.7,4.949,4.949,0,0,1,1.564.233,4.687,4.687,0,0,1,1.4.732v2.13h-2v-.166a1.441,1.441,0,0,0-.233-.9.884.884,0,0,0-.732-.3.937.937,0,0,0-.7.233.833.833,0,0,0-.266.6.756.756,0,0,0,.3.6,5.012,5.012,0,0,0,1.364.6,4.829,4.829,0,0,1,1.93,1.065,2.545,2.545,0,0,1,.5,1.664,2.66,2.66,0,0,1-.832,2.063,3.177,3.177,0,0,1-2.229.765,5.445,5.445,0,0,1-1.664-.266A4.508,4.508,0,0,1,315.5,122.986Z" transform="translate(-222.494 -113.003)" fill="#fff"/>
        </g>
      </g>
      <g id="Group_2996" data-name="Group 2996" transform="translate(60.229)">
        <g id="Group_2994" data-name="Group 2994">
          <path id="Path_8855" data-name="Path 8855" d="M208.613,3.2l.466,10.482,7.72-7.088-7.088,7.753,10.482.466-10.482.466L216.8,23l-7.72-7.088-.466,10.482-.466-10.482L200.394,23l7.088-7.72L197,14.813l10.482-.466-7.088-7.753,7.753,7.088Z" transform="translate(-197 -3.2)" fill="#e9e9e9"/>
        </g>
        <g id="Group_2995" data-name="Group 2995" transform="translate(9.251 8.286)">
          <path id="Path_8856" data-name="Path 8856" d="M227.163,28.1l.133,2.962,1.6-1.364-1.364,1.564,1.963.166-1.963.133,1.2,1.431-1.431-1.2-.133,2.962L227,31.794l-1.4,1.2,1.2-1.431-2-.133,2-.166L225.5,29.7l1.5,1.364Z" transform="translate(-224.8 -28.1)" fill="#e9e9e9"/>
        </g>
      </g>
      <g id="Group_3019" data-name="Group 3019" transform="translate(17.004 51.212)">
        <g id="Group_3007" data-name="Group 3007">
          <g id="Group_2999" data-name="Group 2999">
            <g id="Group_2997" data-name="Group 2997" transform="translate(0.666 0.599)">
              <path id="Path_8857" data-name="Path 8857" d="M69.1,163.259l.466-.2a97.3,97.3,0,0,1,11.846-4.026l.433-.133,3.361,8.119-.566.133a85.36,85.36,0,0,0-11.746,3.927l-.466.2Z" transform="translate(-69.1 -158.9)" fill="#fff"/>
            </g>
            <g id="Group_2998" data-name="Group 2998">
              <path id="Path_8858" data-name="Path 8858" d="M80.244,158.365c1,2.4,1.963,4.758,2.962,7.154a89.353,89.353,0,0,0-11.813,3.927c-.965-2.363-1.963-4.725-2.928-7.088a94.383,94.383,0,0,1,11.78-3.993m.632-1.264-.9.233a96.52,96.52,0,0,0-11.913,4.06l-.965.4.4.965,1.863,4.526,1.065,2.562.4.965.965-.4a87.407,87.407,0,0,1,11.68-3.893l1.165-.3-.466-1.1-1.264-3.061-1.7-4.093-.333-.865Z" transform="translate(-67.1 -157.1)" fill="#676767"/>
            </g>
          </g>
          <g id="Group_3005" data-name="Group 3005" transform="translate(2.695 1.83)">
            <g id="Group_3000" data-name="Group 3000">
              <path id="Path_8859" data-name="Path 8859" d="M85.283,163.532,75.2,167.092l9.683-4.492Z" transform="translate(-75.2 -162.6)" fill="#676767"/>
            </g>
            <g id="Group_3001" data-name="Group 3001" transform="translate(0.433 1.065)">
              <path id="Path_8860" data-name="Path 8860" d="M86.583,166.765,76.5,170.326l9.683-4.526Z" transform="translate(-76.5 -165.8)" fill="#676767"/>
            </g>
            <g id="Group_3002" data-name="Group 3002" transform="translate(0.865 2.13)">
              <path id="Path_8861" data-name="Path 8861" d="M87.883,169.965,77.8,173.526,87.517,169Z" transform="translate(-77.8 -169)" fill="#676767"/>
            </g>
            <g id="Group_3003" data-name="Group 3003" transform="translate(1.331 3.228)">
              <path id="Path_8862" data-name="Path 8862" d="M89.283,173.265,79.2,176.792l9.683-4.492Z" transform="translate(-79.2 -172.3)" fill="#676767"/>
            </g>
            <g id="Group_3004" data-name="Group 3004" transform="translate(1.764 4.293)">
              <path id="Path_8863" data-name="Path 8863" d="M90.583,176.465,80.5,180.026l9.683-4.526Z" transform="translate(-80.5 -175.5)" fill="#676767"/>
            </g>
          </g>
          <g id="Group_3006" data-name="Group 3006" transform="translate(7.088 0.366)">
            <path id="Path_8864" data-name="Path 8864" d="M91.031,167.522l6.123-1.93L95.19,160.9l-5.69,5.091" transform="translate(-89.134 -160.002)" fill="#676767"/>
            <path id="Path_8865" data-name="Path 8865" d="M90.43,166.22l-.3-1,5.59-1.764-1.464-3.494L89.1,164.589l-.7-.8,6.256-5.59,2.462,5.923Z" transform="translate(-88.4 -158.2)" fill="#676767"/>
          </g>
        </g>
        <g id="Group_3018" data-name="Group 3018" transform="translate(60.928)">
          <g id="Group_3010" data-name="Group 3010" transform="translate(0)">
            <g id="Group_3008" data-name="Group 3008" transform="translate(0.732 0.632)">
              <path id="Path_8866" data-name="Path 8866" d="M264.712,171.179a90.09,90.09,0,0,0-11.746-3.927l-.566-.133L255.761,159l.433.133a88.584,88.584,0,0,1,11.846,4.026l.466.2-3.328,8.053Z" transform="translate(-252.4 -159)" fill="#fff"/>
            </g>
            <g id="Group_3009" data-name="Group 3009">
              <path id="Path_8867" data-name="Path 8867" d="M254.592,158.365a94.382,94.382,0,0,1,11.78,3.993c-.965,2.363-1.963,4.725-2.928,7.088a84.741,84.741,0,0,0-11.813-3.927c1-2.4,1.963-4.792,2.962-7.154m-.632-1.264-.333.832-1.7,4.093-1.264,3.061-.466,1.1,1.165.3a82.9,82.9,0,0,1,11.68,3.893l.965.4.4-.965,1.065-2.562,1.863-4.526.4-.965-.965-.366a96.519,96.519,0,0,0-11.913-4.06l-.9-.233Z" transform="translate(-250.2 -157.1)" fill="#676767"/>
            </g>
          </g>
          <g id="Group_3016" data-name="Group 3016" transform="translate(2.995 1.83)">
            <g id="Group_3011" data-name="Group 3011" transform="translate(1.764)">
              <path id="Path_8868" data-name="Path 8868" d="M264.9,162.6l9.683,4.492L264.5,163.532Z" transform="translate(-264.5 -162.6)" fill="#676767"/>
            </g>
            <g id="Group_3012" data-name="Group 3012" transform="translate(1.331 1.065)">
              <path id="Path_8869" data-name="Path 8869" d="M263.6,165.8l9.683,4.526L263.2,166.765Z" transform="translate(-263.2 -165.8)" fill="#676767"/>
            </g>
            <g id="Group_3013" data-name="Group 3013" transform="translate(0.898 2.13)">
              <path id="Path_8870" data-name="Path 8870" d="M262.266,169l9.717,4.526L261.9,169.965Z" transform="translate(-261.9 -169)" fill="#676767"/>
            </g>
            <g id="Group_3014" data-name="Group 3014" transform="translate(0.433 3.228)">
              <path id="Path_8871" data-name="Path 8871" d="M260.9,172.3l9.683,4.492L260.5,173.265Z" transform="translate(-260.5 -172.3)" fill="#676767"/>
            </g>
            <g id="Group_3015" data-name="Group 3015" transform="translate(0 4.293)">
              <path id="Path_8872" data-name="Path 8872" d="M259.6,175.5l9.683,4.526L259.2,176.465Z" transform="translate(-259.2 -175.5)" fill="#676767"/>
            </g>
          </g>
          <g id="Group_3017" data-name="Group 3017" transform="translate(1.73 0.366)">
            <path id="Path_8873" data-name="Path 8873" d="M263.623,167.522l-6.123-1.93,1.963-4.692,5.69,5.091" transform="translate(-256.801 -160.002)" fill="#676767"/>
            <path id="Path_8874" data-name="Path 8874" d="M262.088,166.22l-6.688-2.1,2.462-5.923,6.256,5.59-.7.8-5.158-4.625-1.464,3.494,5.59,1.764Z" transform="translate(-255.4 -158.2)" fill="#676767"/>
          </g>
        </g>
      </g>
      <g id="Group_3020" data-name="Group 3020" transform="translate(23.626 49.515)">
        <path id="Path_8875" data-name="Path 8875" d="M148.663,166.477a85.315,85.315,0,0,0-56.569,0l-.366.133L88.5,158.757l.4-.133a94.059,94.059,0,0,1,62.958,0l.4.133-3.228,7.853Z" transform="translate(-88.001 -152.801)" fill="#fff"/>
        <path id="Path_8876" data-name="Path 8876" d="M119.411,152.8a93.016,93.016,0,0,1,31.346,5.424l-2.928,7.088a85.7,85.7,0,0,0-28.418-4.825,86.711,86.711,0,0,0-28.418,4.825l-2.928-7.088a93.017,93.017,0,0,1,31.346-5.424m0-.8A94,94,0,0,0,87.8,157.457l-.8.266.333.765,2.928,7.088.3.7.7-.266a85.091,85.091,0,0,1,56.3,0l.7.266.3-.7,2.928-7.088.333-.765-.8-.266A94.147,94.147,0,0,0,119.411,152Z" transform="translate(-87 -152)" fill="#676767"/>
      </g>
      <g id="Group_3024" data-name="Group 3024" transform="translate(32.777 51.877)">
        <g id="Group_3023" data-name="Group 3023">
          <g id="Group_3022" data-name="Group 3022">
            <g id="Group_3021" data-name="Group 3021">
              <path id="Path_8877" data-name="Path 8877" d="M116.064,169.1l-.6-2.862-.8.166-.166-.865,2.928-.6a2.968,2.968,0,0,0,.366-.067,2.171,2.171,0,0,1,.366-.067,5.391,5.391,0,0,1,1.5-.133,1.038,1.038,0,0,1,1,.932,1.187,1.187,0,0,1-.666,1.364,6.215,6.215,0,0,1-1.9.632l-.666.133.233,1.032.865-.166.2.932-3.161.666-.2-.932Zm.965-3.194.2,1.032.7-.133a2.941,2.941,0,0,0,1-.3c.133-.1.166-.233.133-.466-.067-.266-.2-.4-.433-.4a5.21,5.21,0,0,0-.666.1Z" transform="translate(-114.5 -162.812)"/>
              <path id="Path_8878" data-name="Path 8878" d="M148.7,164.36l.832-.1.1.965-3.194.366-.1-.965.8-.1-.333-2.9-.8.1-.1-.865,3.194-.366.1.865-.832.1Z" transform="translate(-135.451 -160.034)"/>
              <path id="Path_8879" data-name="Path 8879" d="M169.633,163.925l-.033-.865,3.927-3.095-2.729.067.033.965-1.065.033-.033-1.83,5.99-.1v.8l-3.694,3.061,2.928-.067-.033-.9,1.065-.033.033,1.863Z" transform="translate(-151.265 -159.1)"/>
              <path id="Path_8880" data-name="Path 8880" d="M201.7,164.292l.067-.865,4.259-2.629-2.729-.233-.1.965-1.065-.1.166-1.83,5.99.532-.067.8-3.993,2.629,2.928.266.067-.9,1.065.1-.166,1.83Z" transform="translate(-172.683 -159.434)"/>
              <path id="Path_8881" data-name="Path 8881" d="M235.7,168.394l-.266.266.466.1-.2.932-2.8-.6.2-.932.932.2,3.095-3.194,1.032-.067,1.431,4.426.6.133-.2.932-2.8-.6.2-.932.366.067-.1-.366Zm1.764-.532-.3-1.032-.765.832Z" transform="translate(-193.501 -163.103)"/>
            </g>
          </g>
        </g>
      </g>
    </g>
  </g>
</svg>
