<svg xmlns="http://www.w3.org/2000/svg" width="146" height="28.008" viewBox="0 0 146 28.008">
  <g id="meineke-car-care-centers-llc-logo-vector" transform="translate(-25.2 -267.2)">
    <path id="Path_8792" data-name="Path 8792" d="M37.05,296.114l-.73,2.725h.073a7.274,7.274,0,0,1,5.791-3.139c2.239,0,3.772.949,4.307,3.139a7.7,7.7,0,0,1,6.3-3.139,4.208,4.208,0,0,1,3.772,1.752c.925,1.509.389,3.48-.195,5.621l-3.553,13.286H45.883l3.261-12.167c.341-1.314.876-2.774-.754-2.774-2,0-2.482,2.068-2.92,3.674l-3.017,11.266H35.542L38.8,304.192c.341-1.265.706-2.9-.827-2.9-1.679,0-2.19,1.387-2.6,2.9l-3.261,12.167H25.2l5.426-20.27H37.05Z" transform="translate(0 -21.565)"/>
    <path id="Path_8793" data-name="Path 8793" d="M173.848,309.594a12.477,12.477,0,0,1-11.266,7.178c-2.677,0-5.11-.633-6.643-2.652-1.436-1.947-1.728-4.721-.949-7.616a16.272,16.272,0,0,1,4.721-7.665,12.522,12.522,0,0,1,8.079-3.139c6.059,0,8.614,4.356,6.838,11.023l-.292,1.071H162.12c-.681,2.19-.414,3.772,1.728,3.772a3.444,3.444,0,0,0,3.431-2.458Zm-5.6-5.743c.535-2,.365-3.48-1.63-3.48-1.849,0-3.042,1.63-3.48,3.48Z" transform="translate(-97.889 -21.565)"/>
    <path id="Path_8794" data-name="Path 8794" d="M240.757,294.818H233.7l5.426-20.27h7.057Zm5.937-22.216h-7.057l1.436-5.4h7.057Z" transform="translate(-157.765)"/>
    <path id="Path_8795" data-name="Path 8795" d="M285.794,296.114l-.754,2.847h.073a7.076,7.076,0,0,1,6.035-3.261c1.7,0,3.528.56,4.185,2.093.706,1.655.073,3.966-.487,6.059l-3.334,12.483h-7.057l3.285-12.288c.316-1.241.779-2.944-.754-2.944-1.971,0-2.628,1.874-3.09,3.528l-3.139,11.7H273.7l5.426-20.27h6.667Z" transform="translate(-188.032 -21.565)"/>
    <path id="Path_8796" data-name="Path 8796" d="M381.648,309.594a12.477,12.477,0,0,1-11.266,7.178c-2.677,0-5.11-.633-6.643-2.652-1.436-1.947-1.728-4.721-.949-7.616a16.272,16.272,0,0,1,4.721-7.665,12.522,12.522,0,0,1,8.079-3.139c6.059,0,8.614,4.356,6.813,11.023l-.292,1.071H369.9c-.681,2.19-.414,3.772,1.728,3.772a3.472,3.472,0,0,0,3.455-2.458Zm-5.6-5.743c.535-2,.365-3.48-1.63-3.48-1.849,0-3.042,1.63-3.48,3.48Z" transform="translate(-255.124 -21.565)"/>
    <path id="Path_8797" data-name="Path 8797" d="M457.582,282.819l2.579,13.286h-7.4l-1.241-8.127-2.458,2.531-1.509,5.6H440.5l7.276-27.2h7.057l-3.918,14.673,2.141-2.263,5.743-5.475h6.132Z" transform="translate(-314.244 -1.286)"/>
    <path id="Path_8798" data-name="Path 8798" d="M545.648,309.594a12.477,12.477,0,0,1-11.266,7.178c-2.677,0-5.11-.633-6.643-2.652-1.436-1.947-1.728-4.721-.949-7.616a16.272,16.272,0,0,1,4.721-7.665,12.522,12.522,0,0,1,8.079-3.139c6.059,0,8.614,4.356,6.813,11.023l-.292,1.071H533.9c-.681,2.19-.414,3.772,1.728,3.772a3.471,3.471,0,0,0,3.455-2.458Zm-5.6-5.743c.535-2,.365-3.48-1.63-3.48-1.849,0-3.042,1.63-3.455,3.48Z" transform="translate(-379.218 -21.565)"/>
    <path id="Path_8799" data-name="Path 8799" d="M609.537,278.671a3.2,3.2,0,0,1-.341,1.436,2.582,2.582,0,0,1-.925,1.046,2.211,2.211,0,0,1-2.506,0,2.581,2.581,0,0,1-.925-1.046,3.2,3.2,0,0,1,0-2.871,2.581,2.581,0,0,1,.925-1.046,2.331,2.331,0,0,1,1.241-.389,2.159,2.159,0,0,1,1.265.389,2.967,2.967,0,0,1,.925,1.046,3.277,3.277,0,0,1,.341,1.436m-.487,0a2.393,2.393,0,0,0-.584-1.63,1.853,1.853,0,0,0-2.871,0,2.437,2.437,0,0,0-.584,1.63,2.393,2.393,0,0,0,.584,1.63,1.853,1.853,0,0,0,2.871,0,2.35,2.35,0,0,0,.584-1.63m-3.163-1.533h1.192a.913.913,0,0,1,.73.243.869.869,0,0,1,.219.633.829.829,0,0,1-.17.535.908.908,0,0,1-.535.316.846.846,0,0,1,.219.146,1.179,1.179,0,0,1,.219.316s.146.316.438.9h-.8a8.184,8.184,0,0,0-.511-1.046c-.1-.122-.17-.17-.268-.17h-.073v1.217h-.681v-3.09Zm.657,1.29h.292a.609.609,0,0,0,.414-.1.391.391,0,0,0,.122-.268.349.349,0,0,0-.122-.268.536.536,0,0,0-.389-.1h-.316Z" transform="translate(-438.337 -6.507)"/>
  </g>
</svg>
