<svg xmlns="http://www.w3.org/2000/svg" width="146.995" height="42.941" viewBox="0 0 146.995 42.941">
  <g id="Papa_Murphy_s_logo" data-name="Papa_Murphy&apos;s_logo" transform="translate(0.001 -0.697)">
    <g id="Group_2969" data-name="Group 2969" transform="translate(-0.001 0.697)">
      <path id="Path_8820" data-name="Path 8820" d="M6.259,38.762q6.793.875,13.6,1.635,6.776.7,13.564,1.272,6.769.517,13.536.908,6.754.333,13.506.545,6.737.153,13.475.181,6.722-.027,13.442-.181,6.712-.209,13.413-.545,6.7-.393,13.384-.908,6.683-.577,13.351-1.272,6.669-.757,13.321-1.635l6.146-.868V5.761q-7.5-1.068-15.023-2-6.67-.755-13.343-1.393-6.681-.577-13.372-1.029-6.7-.4-13.4-.669Q85.135.462,78.42.369,71.683.342,64.956.43,58.2.582,51.462.853q-6.772.336-13.526.788-6.788.515-13.556,1.151-6.8.7-13.586,1.513L0,5.755V37.9l6.26.865Z" transform="translate(0.001 -0.362)" fill="#e9e9e9" fill-rule="evenodd"/>
    </g>
    <path id="Path_8821" data-name="Path 8821" d="M2.246,47.448a498.964,498.964,0,0,0,142.959,0v-9.16H2.246Z" transform="translate(-0.664 -11.103)" fill="#676767" fill-rule="evenodd"/>
    <path id="Path_8822" data-name="Path 8822" d="M2.246,8.471a498.863,498.863,0,0,1,142.959,0V27.961H2.246Z" transform="translate(-0.664 -0.776)" fill-rule="evenodd"/>
    <path id="Path_8823" data-name="Path 8823" d="M134.994,18.238a.715.715,0,0,0,.578-.3l.267-.366a5.859,5.859,0,0,1,1.009-1.2,2.353,2.353,0,0,0,.993-1.9,1.078,1.078,0,0,0-.564-.926,1.533,1.533,0,0,0-.636-.163c-.778-.037-.686.408-.686.408.359.772-.2,1.32-.679,1.952a3.961,3.961,0,0,0-.941,1.885.638.638,0,0,0,.185.458.667.667,0,0,0,.475.159Zm-15.6,7.074c-.066-1.05,1.025-3.3,3.239-6.7a1.836,1.836,0,0,0,.379-1.063,1.243,1.243,0,0,0-.484-.9,1.338,1.338,0,0,0-.9-.291,3.449,3.449,0,0,0-.924.148,9.642,9.642,0,0,0-3.254,1.956,16.021,16.021,0,0,0-1.95,1.867,50.648,50.648,0,0,1,4.479-7.241c.7-.858,1.108-1.339,1.219-1.43a.459.459,0,0,0,.2-.373.635.635,0,0,0-.268-.416,1.312,1.312,0,0,0-.839-.249c-.06,0-.125,0-.19.007a2.683,2.683,0,0,0-1.147.307,4.021,4.021,0,0,0-.651.526,25.185,25.185,0,0,0-3.877,5.367c-2.141,3.647-3.266,6.024-3.438,7.262-.089.645-.011,1.063.237,1.275a1.328,1.328,0,0,0,.881.3,1.079,1.079,0,0,0,1.011-.511,23.73,23.73,0,0,1,2.821-4.08,12.057,12.057,0,0,1,2.822-2.281,1.226,1.226,0,0,1,.532-.21.2.2,0,0,1,.072.011c0,.039-.021.152-.2.455-1.226,1.967-1.819,3.575-1.762,4.782.049,1.009.462,1.607,1.233,1.783a2.708,2.708,0,0,0,.444.05.312.312,0,0,0,.318-.348ZM99.714,18.463a.832.832,0,0,1,.385.121.9.9,0,0,0,.407.148c.234,0,.428-.155.579-.458a1.616,1.616,0,0,0,.194-.793c-.035-.767-.464-.927-.82-.927a3.585,3.585,0,0,0-2.2,1.353,19.364,19.364,0,0,0-1.356,1.559l.4-.658a3.739,3.739,0,0,0,.623-1.569,1.031,1.031,0,0,0-.6-.843,1.507,1.507,0,0,0-.742-.233,1.06,1.06,0,0,0-.886.588c-1.8,3.02-3.069,5.288-3.773,6.743a2.111,2.111,0,0,0-.255.951,1.275,1.275,0,0,0,.458.829,1.384,1.384,0,0,0,.955.316c.423,0,.839-.3,1.239-.908.252-.472.5-.937.755-1.39a15.7,15.7,0,0,1,4.082-4.626,1.042,1.042,0,0,1,.542-.2Zm33.085-1.9a1.381,1.381,0,0,0-.607-.157c-.461,0-.948.4-1.486,1.227a24.316,24.316,0,0,1-2.531,3.317c-1.917,2-2.6,2.456-2.826,2.456h0c-.025-.5.863-2.184,2.634-5.01a1.233,1.233,0,0,0,.179-.772,1.129,1.129,0,0,0-.641-1.04,1.951,1.951,0,0,0-.753-.178,1.428,1.428,0,0,0-1.168.805,41.972,41.972,0,0,0-3.522,6.412,2.2,2.2,0,0,0-.137.843,1.173,1.173,0,0,0,1.274,1.27c1,0,2.262-.674,3.766-2.007a17.167,17.167,0,0,0,2.235-2.379q-.636,1.37-1.269,2.727a27.049,27.049,0,0,1-2.621,4.513c-1.117,1.452-3.833,3.05-4.9,3.08a2.22,2.22,0,0,1-.681-.127,1.848,1.848,0,0,0-.5-.141.213.213,0,0,0-.162.07.741.741,0,0,0-.1.545c.02.475.63.7,1.866.7h.011c1.541,0,4.76-1.684,6.261-3.279a24.541,24.541,0,0,0,3.468-5.18c.205-.4,1.084-2.232,2.413-5.018a3.953,3.953,0,0,0,.464-1.688,1.116,1.116,0,0,0-.659-.994Zm-21.223.465c-.113-.526-.551-.792-1.3-.792-1.242,0-2.8,1.027-4.639,3.055.4-.65.687-1.1.852-1.36a1.14,1.14,0,0,0,.2-.669,1.07,1.07,0,0,0-.54-.834,1.49,1.49,0,0,0-.874-.27,2.254,2.254,0,0,0-.579.082c-.3.077-.868.5-2.413,3.282q-1.325,2.376-2.408,4.876a.314.314,0,0,1-.052.144.968.968,0,0,0-.093.206,15.555,15.555,0,0,0-1.4,5.576,3.736,3.736,0,0,0,.144.9,2.791,2.791,0,0,0,1.582,1.879.314.314,0,0,0,.331-.07.4.4,0,0,0,.129-.325.34.34,0,0,0-.108-.23,1.24,1.24,0,0,1-.245-.384,2.233,2.233,0,0,1-.091-.469,7.912,7.912,0,0,1,.722-3.088,28.4,28.4,0,0,1,1.332-3.074,25.44,25.44,0,0,1,2.779-4.223,12.218,12.218,0,0,1,1.888-1.918,2.97,2.97,0,0,1,1.507-.811c.108,0,.223.035.235.3a1.59,1.59,0,0,1-.049.414,7.67,7.67,0,0,1-1.39,2.633,6.618,6.618,0,0,1-3.568,2.606s-.008,0-.013,0c-.13.013-.409.066-.484.289,0,0-.205.507.563.753a1.577,1.577,0,0,0,.564.085,5.786,5.786,0,0,0,1.452-.225,8,8,0,0,0,4.4-3.413,7.485,7.485,0,0,0,1.606-4.469,3.17,3.17,0,0,0-.048-.458Zm30.281,9.739a1.305,1.305,0,1,1,1.328-1.327A1.325,1.325,0,0,1,141.857,26.763Zm0-2.976a1.646,1.646,0,1,0,1.166.482,1.647,1.647,0,0,0-1.166-.482Zm.044,1.535h-.364v-.481h.326c.238,0,.361.085.361.24C142.224,25.2,142.144,25.322,141.9,25.322Zm.225.233v-.008a.482.482,0,0,0,.471-.49c0-.276-.175-.489-.551-.489h-.864v1.75h.354V25.6h.066a.34.34,0,0,1,.286.087,1.563,1.563,0,0,1,.238.345l.141.285h.437l-.2-.352c-.176-.309-.225-.357-.375-.41Zm-.7-6.9a.4.4,0,0,0,.3-.115.5.5,0,0,0,.113-.381,1.13,1.13,0,0,0-.27-.645,2.1,2.1,0,0,0-1.286-.771,4.2,4.2,0,0,0-.66-.054c-1.388,0-2.253.93-2.568,2.771q-.3,2-.574,4.007c-.223,1.034-.637,1.538-1.268,1.538l-.1,0c-.155,0-.3-.137-.445-.4a.85.85,0,0,0-.7-.528.566.566,0,0,0-.43.161.819.819,0,0,0-.168.625c.018.447.4.824,1.13,1.118a4.577,4.577,0,0,0,1.583.33h.014a3.229,3.229,0,0,0,2.447-.927,4.76,4.76,0,0,0,1.058-3.7,23.422,23.422,0,0,1-.008-2.875c.061-.575.211-.866.442-.866.119,0,.347.08.764.447a1.009,1.009,0,0,0,.613.268ZM25.677,23.121c-.09,0-.176-.027-.186-.222a1.181,1.181,0,0,1,.052-.369A7.936,7.936,0,0,1,27.5,19.155a4.665,4.665,0,0,1,3.195-1.887c.362,0,.658.107.712.372C31.551,18.377,26.643,23.121,25.677,23.121Zm7.177-5.739-.032-.077c-.311-.8-1.092-1.13-2.693-1.13h-.115a5.486,5.486,0,0,0-1.6.225,8.262,8.262,0,0,0-4.488,3.525,7.7,7.7,0,0,0-1.7,4.577,2.96,2.96,0,0,0,.048.437c.11.456.5.688,1.17.688,1.388,0,3.095-1.07,4.962-3.1a2.931,2.931,0,0,0-.137,1.122c.057,1.219.516,1.957,1.363,2.194a1.5,1.5,0,0,0,.413.075c.242,0,.383-.123.386-.338a8.073,8.073,0,0,1,.705-2.773c.559-1.094,1-1.922,1.374-2.537a2.914,2.914,0,0,0,.338-2.889Zm11.6-.369c-.114-.525-.552-.791-1.3-.791-1.242,0-2.8,1.026-4.638,3.054q.6-.975.85-1.36a1.137,1.137,0,0,0,.206-.669,1.069,1.069,0,0,0-.541-.834,1.494,1.494,0,0,0-.874-.269,2.264,2.264,0,0,0-.579.082c-.295.078-.867.5-2.412,3.283q-1.325,2.377-2.408,4.876a.317.317,0,0,1-.052.142,1.023,1.023,0,0,0-.093.206,15.593,15.593,0,0,0-1.4,5.576,3.849,3.849,0,0,0,.144.9,2.794,2.794,0,0,0,1.583,1.879.315.315,0,0,0,.331-.07A.4.4,0,0,0,33.4,32.7a.338.338,0,0,0-.107-.23,1.231,1.231,0,0,1-.245-.384,2.206,2.206,0,0,1-.091-.468,7.921,7.921,0,0,1,.721-3.088,28.546,28.546,0,0,1,1.332-3.074,25.5,25.5,0,0,1,2.779-4.222,12.247,12.247,0,0,1,1.889-1.919,2.976,2.976,0,0,1,1.506-.81c.109,0,.223.034.236.3a1.628,1.628,0,0,1-.049.414,7.706,7.706,0,0,1-1.39,2.635,6.614,6.614,0,0,1-3.569,2.605s-.008,0-.012,0c-.13.013-.409.066-.485.287,0,0-.205.507.562.754a1.584,1.584,0,0,0,.565.085,5.736,5.736,0,0,0,1.453-.226,7.994,7.994,0,0,0,4.395-3.412A7.477,7.477,0,0,0,44.5,17.471a3.239,3.239,0,0,0-.048-.458ZM25.3,14.655c0-2.4-2.651-3.456-5.973-3.539A13.138,13.138,0,0,0,11.8,13.3a.7.7,0,0,0-.362.65.683.683,0,0,0,.635.643,1.03,1.03,0,0,0,.507-.171,11.009,11.009,0,0,1,4.668-1.588,42.855,42.855,0,0,0-3.6,4.633,38.962,38.962,0,0,0-2.215,3.684,7.115,7.115,0,0,0-.924,3.333,3.141,3.141,0,0,0,.2.961,2.633,2.633,0,0,0,.527.741.927.927,0,0,0,.639.359.42.42,0,0,0,.116-.014l.047-.011.02-.043a1.5,1.5,0,0,0,.132-.5,5.292,5.292,0,0,1,.479-1.438,41.506,41.506,0,0,1,3.636-6.23,45.924,45.924,0,0,1,4.067-5.327.745.745,0,0,1,.572-.24,1.164,1.164,0,0,1,1.149.934,2.9,2.9,0,0,1,.156.8,4.189,4.189,0,0,1-1.888,3.456,5.236,5.236,0,0,1-3.218,1.327,3.791,3.791,0,0,1-.442-.028,1.359,1.359,0,0,0-.181-.012.508.508,0,0,0-.381.127.38.38,0,0,0-.094.289c.02.432.693.633,2.115.633.163,0,.337,0,.519-.008a7.334,7.334,0,0,0,4.558-1.9A4.926,4.926,0,0,0,25.3,14.655Zm67.718,3.108a1.1,1.1,0,0,0-.707-1.073,1.742,1.742,0,0,0-.826-.207,2.044,2.044,0,0,0-.438.049.922.922,0,0,0-.531.333,1.58,1.58,0,0,0-.3.339L88.3,19.555a18.183,18.183,0,0,1-3.539,3.437c-.256.181-.373.216-.44.216h-.01c-.023-.13.254-.869,2.356-4.372a2.487,2.487,0,0,0,.466-1.3,1.177,1.177,0,0,0-.676-.965,1.456,1.456,0,0,0-.689-.206c-.457,0-.895.328-1.3.979-1.368,2.215-2.451,4.1-3.217,5.612a2.835,2.835,0,0,0-.358,1.421,1.242,1.242,0,0,0,1.421,1.292c.911,0,2.141-.753,3.756-2.3.434-.412,1.235-1.267,2.389-2.544a6.23,6.23,0,0,0-.822,3.064,2.425,2.425,0,0,0,.879,1.89.853.853,0,0,0,.507.187c.094,0,.141,0,.853-1.924.469-1.25.721-1.912.75-1.97,1.057-1.848,1.752-3.024,2.069-3.495a1.856,1.856,0,0,0,.32-.806Zm-9.357-3.751a1.918,1.918,0,0,0,.3-1.463c-.151-.706-.533-1.064-1.133-1.064a1.868,1.868,0,0,0-.382.042,11.336,11.336,0,0,0-3.921,2.365A32.433,32.433,0,0,0,75.171,16.9l-.63.675.363-.688a8.2,8.2,0,0,0,1.01-3.2,1.059,1.059,0,0,0-1.153-1.05c-.042,0-.087,0-.13,0-1.508.094-4.02,2.262-7.683,6.627.853-1.564,1.39-2.584,1.639-3.119a9.081,9.081,0,0,0,1.163-4.268,1.363,1.363,0,0,0-1.539-1.318c-.063,0-.126,0-.191.006a8.527,8.527,0,0,0-4.291,1.723,13.206,13.206,0,0,0-2.754,2.517,1.345,1.345,0,0,0-.419.933.546.546,0,0,0,.613.544h.006a.834.834,0,0,0,.717-.511,7.23,7.23,0,0,1,1.935-2.415,5.739,5.739,0,0,1,3-1.537.4.4,0,0,1,.3.1.684.684,0,0,1,.131.5c-.016.879-.913,2.85-2.669,5.855-2.438,4.182-3.52,6.064-3.618,6.285a.99.99,0,0,0-.1.579,1.169,1.169,0,0,0,.862,1.065,1.717,1.717,0,0,0,.5.07l.106,0a1.4,1.4,0,0,0,1.215-.632A58.28,58.28,0,0,1,67.921,19.6a27.134,27.134,0,0,1,4.286-4.271.61.61,0,0,1,.323-.169.126.126,0,0,1,.074.021,1.442,1.442,0,0,1-.186.645c-1.315,2.816-2.475,5.139-3.448,6.9a1.452,1.452,0,0,0-.167.874,1.263,1.263,0,0,0,.561.977,1.373,1.373,0,0,0,.7.192l.088,0a1.176,1.176,0,0,0,.976-.542,55.461,55.461,0,0,1,3.732-5.369A19.646,19.646,0,0,1,80.368,13.9a.609.609,0,0,1,.233-.066.272.272,0,0,1,.075.01.349.349,0,0,1-.058.19c-3.092,5.235-4.176,7.779-4.143,9.72a2.364,2.364,0,0,0,1.191,2.311.635.635,0,0,0,.4.1h.014a.334.334,0,0,0,.254-.1.275.275,0,0,0,.058-.216l-.045-.39a4.918,4.918,0,0,1,.2-1.025,42.87,42.87,0,0,1,5.109-10.415ZM47.638,23.121c-.091,0-.176-.027-.186-.222a1.169,1.169,0,0,1,.052-.369,7.922,7.922,0,0,1,1.954-3.375,4.665,4.665,0,0,1,3.195-1.887c.362,0,.658.107.712.372C53.512,18.377,48.6,23.121,47.638,23.121Zm7.145-5.815c-.311-.8-1.092-1.13-2.693-1.13h-.114a5.486,5.486,0,0,0-1.6.225,8.262,8.262,0,0,0-4.488,3.525,7.7,7.7,0,0,0-1.7,4.577,3.058,3.058,0,0,0,.048.437c.11.456.5.688,1.171.688,1.387,0,3.094-1.07,4.961-3.1a2.959,2.959,0,0,0-.137,1.122c.058,1.219.517,1.957,1.363,2.194a1.507,1.507,0,0,0,.414.075c.242,0,.383-.123.385-.338a8.089,8.089,0,0,1,.705-2.773c.559-1.094,1-1.922,1.375-2.537a2.915,2.915,0,0,0,.338-2.889l-.032-.077ZM37.452,35.572v4.736H36.217V35.572h-1.61V34.539h4.464v1.034Zm5.087,2.853c-.265-.6-.521-1.21-.7-1.715-.168.4-.473,1.17-.713,1.715h1.411Zm-.729-3.975h.048l2.805,5.858h-1.29l-.465-1.017H40.751L40.3,40.309H39.012l2.8-5.858Zm4.99,2.813,2.244-2.726H50.5l-2.019,2.381.753,1.459c.28.537.457.889.857.929a1.234,1.234,0,0,0,.45-.016v1.057a2.019,2.019,0,0,1-.569.073c-.722,0-1.13-.352-1.611-1.29l-.745-1.387-.817.938v1.627H45.566V34.538H46.8v2.726Zm4.83,3.045V34.538h3.711v1.034H52.865v1.314h2.1v.994h-2.1v1.4h2.6v1.034Zm6.937-5.989h.841l-.543,2.029H57.809ZM64.785,40.4,61.619,37.36l-.377-.329v3.278h-1.21V34.451h.048l3.158,3.037.369.328V34.538h1.218V40.4Zm1.538-4.048h-.841l.542-2.029h1.056Zm4.62,2.975h.913a.781.781,0,0,0,.874-.778.733.733,0,0,0-.793-.769h-.994v1.547Zm.737-2.382a1.725,1.725,0,0,0,.465-.047.631.631,0,0,0,.385-.633.718.718,0,0,0-.817-.737h-.769v1.418h.737ZM74,38.626c0,1.106-.9,1.683-2.2,1.683H69.764V34.538h1.867c1.226,0,2.149.538,2.149,1.619a1.2,1.2,0,0,1-.738,1.122A1.423,1.423,0,0,1,74,38.626Zm4.1-.2c-.264-.6-.521-1.21-.7-1.715-.168.4-.472,1.17-.713,1.715H78.1Zm-.729-3.975h.047l2.805,5.858H78.93l-.465-1.017H76.309l-.448,1.017H74.57l2.8-5.858Zm4.99,2.813L84.6,34.538h1.459l-2.019,2.381.753,1.459c.28.537.457.889.858.929a1.23,1.23,0,0,0,.449-.016v1.057a2.019,2.019,0,0,1-.569.073c-.722,0-1.131-.352-1.611-1.29l-.745-1.387-.817.938v1.627H81.123V34.538h1.235v2.726Zm4.83,3.045V34.538H90.9v1.034H88.422v1.314h2.1v.994h-2.1v1.4h2.6v1.034Zm8-4.737V37.3H95.9a.806.806,0,0,0,.905-.858.829.829,0,0,0-.937-.867h-.674Zm0,2.765v1.971H93.957V34.539h1.876c1.331,0,2.22.657,2.22,1.9s-.889,1.9-2.22,1.9h-.641Z" transform="translate(-3.102 -2.914)" fill="#fefefe" fill-rule="evenodd"/>
    <path id="Path_8824" data-name="Path 8824" d="M136.307,50.322h1.235V44.551h-1.235Zm5.168-4.737h-2.541V44.552h4.416l-2.789,4.736h2.7v1.034h-4.576Zm5.4,0h-2.541V44.552h4.416l-2.788,4.736h2.7v1.034h-4.577Zm5.9,2.853c-.265-.6-.521-1.21-.7-1.715-.168.4-.473,1.17-.713,1.715h1.411Zm-.729-3.975h.048l2.8,5.858H153.6l-.464-1.017h-2.156l-.449,1.017h-1.29l2.8-5.858Z" transform="translate(-40.261 -12.927)" fill="#fefefe" fill-rule="evenodd"/>
  </g>
</svg>
